<svg width="25" height="24" viewBox="0 0 25 24" fill="none" xmlns="http://www.w3.org/2000/svg">
<g id="FilterRight" clip-path="url(#clip0_615_825)">
<path id="Vector" d="M25.1 15.75C25.1 15.5511 25.0052 15.3603 24.8364 15.2197C24.6676 15.079 24.4387 15 24.2 15H18.8C18.5613 15 18.3324 15.079 18.1636 15.2197C17.9948 15.3603 17.9 15.5511 17.9 15.75C17.9 15.9489 17.9948 16.1397 18.1636 16.2803C18.3324 16.421 18.5613 16.5 18.8 16.5H24.2C24.4387 16.5 24.6676 16.421 24.8364 16.2803C25.0052 16.1397 25.1 15.9489 25.1 15.75ZM25.1 11.25C25.1 11.0511 25.0052 10.8603 24.8364 10.7197C24.6676 10.579 24.4387 10.5 24.2 10.5H11.6C11.3613 10.5 11.1324 10.579 10.9636 10.7197C10.7948 10.8603 10.7 11.0511 10.7 11.25C10.7 11.4489 10.7948 11.6397 10.9636 11.7803C11.1324 11.921 11.3613 12 11.6 12H24.2C24.4387 12 24.6676 11.921 24.8364 11.7803C25.0052 11.6397 25.1 11.4489 25.1 11.25ZM25.1 6.75C25.1 6.55109 25.0052 6.36032 24.8364 6.21967C24.6676 6.07902 24.4387 6 24.2 6H4.4C4.16131 6 3.93239 6.07902 3.7636 6.21967C3.59482 6.36032 3.5 6.55109 3.5 6.75C3.5 6.94891 3.59482 7.13968 3.7636 7.28033C3.93239 7.42098 4.16131 7.5 4.4 7.5H24.2C24.4387 7.5 24.6676 7.42098 24.8364 7.28033C25.0052 7.13968 25.1 6.94891 25.1 6.75Z" fill="#1E1E1E"/>
</g>
<defs>
<clipPath id="clip0_615_825">
<rect width="24" height="24" fill="white" transform="translate(0.5)"/>
</clipPath>
</defs>
</svg>
