<svg width="20" height="20" viewBox="0 0 20 20" fill="none" xmlns="http://www.w3.org/2000/svg">
<g id="ri:instagram-fill">
<path id="Vector" d="M9.99984 1.6666C12.264 1.6666 12.5465 1.67493 13.4348 1.7166C14.3223 1.75826 14.9265 1.89743 15.4582 2.1041C16.0082 2.31576 16.4715 2.60243 16.9348 3.06493C17.3586 3.48151 17.6865 3.98542 17.8957 4.5416C18.1015 5.07243 18.2415 5.67743 18.2832 6.56493C18.3223 7.45326 18.3332 7.73576 18.3332 9.99993C18.3332 12.2641 18.3248 12.5466 18.2832 13.4349C18.2415 14.3224 18.1015 14.9266 17.8957 15.4583C17.6871 16.0147 17.3591 16.5188 16.9348 16.9349C16.5181 17.3585 16.0143 17.6864 15.4582 17.8958C14.9273 18.1016 14.3223 18.2416 13.4348 18.2833C12.5465 18.3224 12.264 18.3333 9.99984 18.3333C7.73567 18.3333 7.45317 18.3249 6.56484 18.2833C5.67734 18.2416 5.07317 18.1016 4.5415 17.8958C3.98511 17.687 3.48111 17.359 3.06484 16.9349C2.64101 16.5184 2.31311 16.0145 2.104 15.4583C1.89734 14.9274 1.75817 14.3224 1.7165 13.4349C1.67734 12.5466 1.6665 12.2641 1.6665 9.99993C1.6665 7.73576 1.67484 7.45326 1.7165 6.56493C1.75817 5.6766 1.89734 5.07326 2.104 4.5416C2.31253 3.98508 2.64051 3.48103 3.06484 3.06493C3.48123 2.64095 3.98519 2.31304 4.5415 2.1041C5.07317 1.89743 5.6765 1.75826 6.56484 1.7166C7.45317 1.67743 7.73567 1.6666 9.99984 1.6666ZM9.99984 5.83326C8.89477 5.83326 7.83496 6.27225 7.05356 7.05365C6.27216 7.83505 5.83317 8.89486 5.83317 9.99993C5.83317 11.105 6.27216 12.1648 7.05356 12.9462C7.83496 13.7276 8.89477 14.1666 9.99984 14.1666C11.1049 14.1666 12.1647 13.7276 12.9461 12.9462C13.7275 12.1648 14.1665 11.105 14.1665 9.99993C14.1665 8.89486 13.7275 7.83505 12.9461 7.05365C12.1647 6.27225 11.1049 5.83326 9.99984 5.83326ZM15.4165 5.62493C15.4165 5.34866 15.3068 5.08371 15.1114 4.88836C14.9161 4.69301 14.6511 4.58326 14.3748 4.58326C14.0986 4.58326 13.8336 4.69301 13.6383 4.88836C13.4429 5.08371 13.3332 5.34866 13.3332 5.62493C13.3332 5.9012 13.4429 6.16615 13.6383 6.3615C13.8336 6.55685 14.0986 6.6666 14.3748 6.6666C14.6511 6.6666 14.9161 6.55685 15.1114 6.3615C15.3068 6.16615 15.4165 5.9012 15.4165 5.62493ZM9.99984 7.49993C10.6629 7.49993 11.2988 7.76332 11.7676 8.23216C12.2364 8.701 12.4998 9.33689 12.4998 9.99993C12.4998 10.663 12.2364 11.2989 11.7676 11.7677C11.2988 12.2365 10.6629 12.4999 9.99984 12.4999C9.3368 12.4999 8.70091 12.2365 8.23207 11.7677C7.76323 11.2989 7.49984 10.663 7.49984 9.99993C7.49984 9.33689 7.76323 8.701 8.23207 8.23216C8.70091 7.76332 9.3368 7.49993 9.99984 7.49993Z" fill="#1E1E1E" fill-opacity="0.75"/>
</g>
</svg>
